<svg width="16" height="11" viewBox="0 0 16 11" fill="none" xmlns="http://www.w3.org/2000/svg">
<path d="M13.3758 4.62004C14.223 4.55015 14.7977 4.16499 15.0189 3.6424C14.7133 3.83013 13.7646 4.03481 13.2406 3.83988C13.215 3.71678 13.1863 3.59986 13.1581 3.49429C12.7589 2.02838 11.392 0.847392 9.95978 0.990062C10.0757 0.943277 10.1932 0.899718 10.3104 0.860614C10.468 0.804149 11.393 0.653658 11.2473 0.32718C11.1245 0.0400164 9.99446 0.544201 9.78168 0.6101C10.0626 0.504465 10.5271 0.322761 10.5769 0C10.1465 0.0590249 9.7241 0.262473 9.39768 0.5583C9.51552 0.431447 9.60492 0.276853 9.6239 0.110475C8.47614 0.84371 7.80567 2.32196 7.26308 3.75592C6.83703 3.34303 6.45941 3.01788 6.12065 2.83734C5.17031 2.32772 4.03402 1.796 2.25031 1.13385C2.19556 1.724 2.54218 2.50868 3.54095 3.03051C3.32456 3.00154 2.92884 3.06618 2.61235 3.14197C2.74124 3.81803 3.16217 4.37504 4.30172 4.64438C3.78094 4.67875 3.5118 4.79726 3.26788 5.05268C3.50507 5.52288 4.08386 6.07627 5.12503 5.96268C3.96746 6.4616 4.65304 7.38555 5.59496 7.24776C3.98811 8.90744 1.45474 8.78546 0 7.3973C3.79823 12.5728 12.0547 10.4581 13.2851 5.47308C14.207 5.48094 14.7489 5.15376 15.085 4.79305C14.5538 4.88318 13.784 4.79003 13.3758 4.62004Z" fill="#8B7EAC" fill-opacity="0.65"/>
</svg>
