<svg width="6" height="11" viewBox="0 0 6 11" fill="none" xmlns="http://www.w3.org/2000/svg">
<path d="M1.09903 2.1101C1.09903 2.38467 1.09903 3.61019 1.09903 3.61019H0V5.44451H1.09903V10.8954H3.35667V5.44466H4.87165C4.87165 5.44466 5.01354 4.56512 5.08231 3.60343C4.88513 3.60343 3.36521 3.60343 3.36521 3.60343C3.36521 3.60343 3.36521 2.53628 3.36521 2.34923C3.36521 2.16178 3.61136 1.90963 3.85465 1.90963C4.09748 1.90963 4.61 1.90963 5.08469 1.90963C5.08469 1.65988 5.08469 0.796959 5.08469 6.55242e-09C4.45099 6.55242e-09 3.73004 6.55242e-09 3.41225 6.55242e-09C1.04322 -0.000126652 1.09903 1.83601 1.09903 2.1101Z" fill="#8B7EAC" fill-opacity="0.65"/>
</svg>
